<svg width="66" height="67" viewBox="0 0 66 67" fill="none" xmlns="http://www.w3.org/2000/svg">
<path d="M66 33.7253C65.8951 33.8522 65.7737 33.9682 65.6853 34.1062C64.3549 36.1157 63.0134 38.1196 61.716 40.1512C61.5062 40.4825 61.3793 40.9407 61.3958 41.3381C61.4897 43.7065 61.6167 46.0693 61.7823 48.4321C61.8485 49.3872 61.4897 49.9613 60.645 50.3753C58.5583 51.3911 56.4991 52.4732 54.4178 53.5C53.943 53.7319 53.6504 54.0521 53.4186 54.5158C52.3807 56.6191 51.2932 58.6949 50.2553 60.7982C49.8633 61.5987 49.2892 61.9299 48.4004 61.8747C45.9272 61.7091 43.4594 61.5711 40.9862 61.4552C40.7157 61.4441 40.401 61.5711 40.1637 61.7201C38.1431 63.034 36.1226 64.3479 34.1352 65.706C33.3457 66.2415 32.6777 66.2415 31.8938 65.706C29.9782 64.3921 28.0128 63.1445 26.0862 61.8416C25.6335 61.538 25.2029 61.422 24.6508 61.4607C22.2659 61.6318 19.881 61.7367 17.4906 61.8802C16.6791 61.9299 16.1601 61.5656 15.8013 60.8479C14.7193 58.6728 13.6207 56.5032 12.5 54.3502C12.3454 54.0521 12.0584 53.765 11.7602 53.6104C9.62377 52.4953 7.47627 51.4022 5.31772 50.3422C4.51723 49.9503 4.17495 49.3872 4.23016 48.4983C4.38474 46.0693 4.51723 43.6402 4.62212 41.2112C4.63868 40.8744 4.52827 40.4825 4.34609 40.2009C3.04323 38.1749 1.72381 36.1543 0.376791 34.1559C-0.120061 33.4161 -0.131103 32.7592 0.376791 32.0194C1.71829 30.043 3.03219 28.0501 4.32401 26.0406C4.52827 25.7259 4.64972 25.2898 4.63316 24.9144C4.53379 22.5682 4.41786 20.2274 4.2412 17.8867C4.16391 16.8323 4.54483 16.2029 5.49437 15.7502C7.60876 14.74 9.69002 13.6579 11.7713 12.5759C12.0694 12.4213 12.3565 12.1342 12.511 11.8417C13.6207 9.70519 14.7138 7.55768 15.7737 5.39361C16.1767 4.57105 16.7674 4.23429 17.6838 4.30054C20.135 4.47167 22.5861 4.59865 25.0373 4.71458C25.3078 4.72562 25.628 4.61521 25.8598 4.46615C27.5602 3.36756 29.2439 2.24688 30.9332 1.13172C31.5019 0.734238 32.0815 0.369879 32.6612 0C32.9206 0 33.1801 0 33.4341 0C35.692 1.49056 37.9444 2.98664 40.2078 4.46615C40.4121 4.59865 40.6771 4.7201 40.9089 4.70906C43.3822 4.59313 45.8499 4.46063 48.3231 4.31158C49.4051 4.24533 49.7971 4.44407 50.2829 5.40465C51.3649 7.53008 52.4249 9.66655 53.529 11.7809C53.7001 12.1122 54.0259 12.4268 54.3571 12.6035C56.5101 13.7242 58.6797 14.8117 60.8548 15.8993C61.5228 16.236 61.8706 16.7384 61.8264 17.4947C61.6884 19.9459 61.5283 22.3915 61.4179 24.8426C61.4014 25.218 61.5007 25.6597 61.6995 25.9744C63.1072 28.1881 64.5591 30.3687 66 32.5659V33.7308V33.7253ZM7.25544 44.0101H7.24992C7.1892 45.2136 7.13951 46.4171 7.0567 47.6206C7.0291 48.007 7.16711 48.1892 7.50387 48.3548C9.52992 49.354 11.556 50.3477 13.5489 51.4077C14.0071 51.6506 14.4488 52.0867 14.6972 52.5449C15.7516 54.5158 16.7509 56.5198 17.7335 58.5237C17.9378 58.9378 18.1641 59.0703 18.6168 59.0371C20.8306 58.8936 23.0443 58.7887 25.2581 58.6452C25.915 58.601 26.4671 58.7611 27.0136 59.131C28.8465 60.3731 30.7124 61.5711 32.5508 62.8132C32.9151 63.0616 33.1525 63.0561 33.5169 62.8132C35.3552 61.5711 37.2212 60.3786 39.054 59.1365C39.5785 58.7832 40.114 58.6121 40.7433 58.6507C42.9792 58.7942 45.215 58.8991 47.4453 59.0427C47.887 59.0703 48.1299 58.9599 48.3396 58.5348C49.3223 56.5253 50.316 54.5213 51.376 52.556C51.6244 52.0978 52.066 51.6616 52.5243 51.4187C54.4951 50.3643 56.4991 49.3651 58.503 48.3824C58.9226 48.1782 59.0385 47.9408 59.0109 47.4936C58.8619 45.2191 58.7239 42.9391 58.6466 40.6591C58.63 40.1788 58.7901 39.6268 59.0496 39.2238C60.2641 37.2971 61.5338 35.4035 62.8091 33.51C63.0189 33.1953 63.0299 32.98 62.8091 32.6598C61.5449 30.7883 60.2862 28.9113 59.0827 27.0012C58.8067 26.5595 58.6355 25.9633 58.6521 25.4444C58.7239 23.1865 58.8674 20.9285 59.0109 18.6761C59.0385 18.229 58.9281 17.9916 58.503 17.7873C56.4936 16.8047 54.4896 15.811 52.5243 14.751C52.066 14.5026 51.6244 14.0665 51.376 13.6138C50.316 11.6429 49.3223 9.64446 48.3396 7.63497C48.1354 7.20989 47.898 7.09395 47.4508 7.12156C45.1929 7.26509 42.9405 7.41415 40.6826 7.48591C40.1637 7.50248 39.5674 7.32582 39.1258 7.04979C37.2322 5.86286 35.3718 4.61521 33.5169 3.36204C33.158 3.11913 32.9206 3.10257 32.5508 3.351C30.7014 4.60417 28.8409 5.85182 26.9419 7.03875C26.5002 7.31478 25.904 7.49696 25.385 7.48039C23.1713 7.41415 20.9575 7.27061 18.7438 7.12156C18.1972 7.08291 17.9102 7.21541 17.6617 7.73434C16.7122 9.71071 15.724 11.6705 14.6917 13.6027C14.4432 14.0609 14.0071 14.5026 13.5544 14.7455C11.6222 15.7834 9.6569 16.755 7.68605 17.7211C7.22784 17.9474 7.02358 18.1903 7.06222 18.7369C7.22232 20.9451 7.31617 23.1644 7.4597 25.3726C7.49835 25.9854 7.34929 26.4988 7.00702 27.0067C5.75936 28.8616 4.54483 30.7441 3.29718 32.5991C3.05428 32.9579 3.04323 33.2008 3.29166 33.5652C4.55588 35.4366 5.81457 37.3136 7.01254 39.2293C7.27752 39.6544 7.42658 40.2285 7.4321 40.7309C7.44314 41.824 7.32721 42.9226 7.26648 44.0156L7.25544 44.0101Z" fill="#2D4433"/>
<path d="M33.0036 12.4986C44.3209 12.4544 53.5844 21.6959 53.612 33.0572C53.6451 44.3855 44.4257 53.6159 33.0478 53.6601C21.7417 53.7042 12.4505 44.4959 12.4395 33.1014C12.4284 21.6793 21.6478 12.5262 33.0036 12.4986ZM50.8738 33.0738C50.8738 23.2637 42.8358 15.2368 33.0257 15.2478C23.1991 15.2589 15.1887 23.2692 15.1998 33.0848C15.2053 42.9115 23.2212 50.9163 33.0368 50.9108C42.8634 50.9053 50.8793 42.8894 50.8738 33.0738Z" fill="#2D4433"/>
<path d="M30.7182 36.0715C33.6993 33.256 36.8736 30.2583 40.059 27.2717C40.335 27.0122 40.6607 26.7472 41.0085 26.6423C41.6103 26.4601 42.1568 26.6533 42.5156 27.2164C42.8579 27.7519 42.8027 28.2764 42.4328 28.7733C42.3059 28.9444 42.1458 29.0934 41.9912 29.2425C38.5795 32.461 35.1677 35.6795 31.756 38.8925C30.7182 39.8696 30.0722 39.8476 29.073 38.8207C27.4058 37.1093 25.7386 35.4035 24.0769 33.6866C23.9002 33.5044 23.7236 33.3112 23.5856 33.0959C23.2157 32.5217 23.2985 31.8482 23.7788 31.39C24.2591 30.9373 24.9326 30.8766 25.4902 31.2741C25.7165 31.4342 25.9042 31.6495 26.1085 31.8372C27.6266 33.2339 29.1503 34.6251 30.7237 36.0715H30.7182Z" fill="#2D4433"/>
</svg>
