<svg width="66" height="66" viewBox="0 0 66 66" fill="none" xmlns="http://www.w3.org/2000/svg">
<path d="M65.8557 29.9445C65.6648 27.7382 65.0495 25.5637 64.5828 23.3839C64.4025 22.5406 63.835 22.1163 63.1296 22.0368C61.9999 21.9095 61.0134 22.9702 61.4537 24.4446C63.4054 30.9628 63.2675 37.4651 60.7005 43.7659C56.4523 54.1982 48.6665 60.4619 37.5765 62.3871C30.809 63.5645 24.2855 62.3977 18.3825 58.8708C7.62668 52.4533 2.60941 42.8219 3.42617 30.3476C3.87698 23.4741 6.73036 17.4915 11.509 12.5167C16.9718 6.82052 23.7021 3.78682 31.5781 3.35192C35.0201 3.16099 38.3933 3.59059 41.6922 4.60359C42.7582 4.92711 43.6651 4.50812 43.9515 3.60119C44.2485 2.65184 43.7394 1.75021 42.6468 1.45321C41.3421 1.10316 40.0268 0.774336 38.7009 0.51976C37.5023 0.291702 36.2877 0.169718 35.0785 0H30.9522C29.743 0.169718 28.5285 0.307613 27.3298 0.503849C14.4737 2.65714 3.87698 12.6174 0.917535 25.3834C0.535671 27.0275 0.376561 28.7247 0.111377 30.3953C0.0795551 30.5863 0.0371257 30.7719 0 30.9575V35.0838C0.0371257 35.2906 0.0954661 35.4975 0.116681 35.7096C0.763729 43.0817 3.47391 49.6106 8.46996 55.0468C16.1019 63.3577 25.638 66.9854 36.8605 65.7708C45.2403 64.8639 52.2783 61.1142 57.8153 54.7763C64.0259 47.68 66.6725 39.3214 65.8557 29.9339V29.9445Z" fill="#2D4433"/>
<path d="M54.2729 29.7325C53.2917 29.8332 52.6712 30.6341 52.7879 31.7001C53.0053 33.6254 52.772 35.5188 52.353 37.391C49.8443 48.6082 37.8156 55.3492 26.9378 51.6472C17.9746 48.5976 12.4216 40.0852 13.5566 30.6977C14.5219 22.7422 18.9717 17.3113 26.3915 14.373C28.9532 13.36 31.6581 12.9835 34.4266 13.2593C35.36 13.3494 36.1025 12.8031 36.2351 11.9811C36.373 11.1378 35.8373 10.2998 34.9835 10.0505C34.7766 9.99219 34.5592 9.93915 34.3523 9.94446C32.8938 9.98689 31.4194 9.91794 29.9821 10.1089C17.1525 11.8326 8.23704 23.9886 10.4275 36.7227C12.3421 47.8551 21.8887 55.9432 33.1431 56.0758C34.819 55.8424 36.5374 55.7735 38.1657 55.3545C47.7759 52.8777 53.6842 46.7572 55.742 37.0462C56.1345 35.2005 56.0496 33.2488 56.0602 31.3395C56.0656 30.3 55.2064 29.6317 54.2782 29.7272L54.2729 29.7325Z" fill="#2D4433"/>
<path d="M42.9864 15.1525C43.0023 16.7012 42.9598 18.2499 43.0076 19.7932C43.0235 20.4456 42.8432 20.9017 42.3711 21.3684C39.0086 24.6885 35.6726 28.0457 32.3313 31.3871C32.151 31.5674 31.96 31.7477 31.8062 31.9545C31.1327 32.8615 31.5251 34.1078 32.5965 34.4738C33.3761 34.739 33.9648 34.4155 34.5005 33.8745C37.3857 30.984 40.2709 28.0988 43.1614 25.2136C43.8774 24.4976 44.4873 23.5111 45.3518 23.1664C46.2375 22.811 47.3778 23.0868 48.412 23.0868V23.0444C49.25 23.0444 50.088 23.0338 50.926 23.0444C51.5889 23.055 52.1246 22.8375 52.5966 22.3655C55.747 19.1939 58.908 16.0329 62.0796 12.8825C62.6524 12.3151 62.9176 11.6786 62.6153 10.9043C62.3076 10.1193 61.6553 9.87006 60.8491 9.88066C59.5603 9.89657 58.2715 9.85415 56.9828 9.89658C56.3569 9.91779 56.113 9.7852 56.1448 9.09572C56.2084 7.80693 56.1501 6.51814 56.166 5.22934C56.1766 4.43379 55.9538 3.77083 55.1742 3.44731C54.3787 3.11848 53.7316 3.39958 53.1429 3.98828C50.0031 7.14397 46.858 10.289 43.7024 13.4235C43.2091 13.9115 42.9864 14.463 42.9917 15.1472L42.9864 15.1525ZM46.3065 15.6988C46.3065 15.5503 46.4178 15.3753 46.5292 15.2639C48.5446 13.2379 50.5653 11.2172 52.5913 9.19649C52.6444 9.14345 52.7186 9.10633 52.8724 9.00556C52.8724 9.85945 52.8618 10.6232 52.8724 11.3869C52.8883 12.4954 53.5301 13.1424 54.6385 13.1583C55.4023 13.1689 56.166 13.1583 57.0676 13.1583C56.8343 13.4182 56.7017 13.572 56.5585 13.7152C54.6916 15.5874 52.83 17.4649 50.9366 19.3106C50.6979 19.544 50.2789 19.7031 49.9395 19.719C48.7462 19.7667 47.5475 19.7402 46.2852 19.7402C46.2852 18.3506 46.2799 17.0194 46.2959 15.6935L46.3065 15.6988Z" fill="#2D4433"/>
<path d="M28.3906 24.2539C29.8279 23.4636 31.3713 23.0818 33.0154 23.0447C34.0867 23.0181 34.7815 22.3074 34.7656 21.374C34.7497 20.414 33.986 19.7246 32.8987 19.7617C32.1933 19.7882 31.4826 19.8572 30.7879 19.9791C24.0893 21.1778 19.4433 27.2505 20.0055 34.0498C20.5624 40.812 26.285 46.0573 33.1109 46.0626C40.1382 46.0679 45.9033 40.5945 46.2799 33.5618C46.3541 32.1564 45.7813 31.3237 44.7047 31.276C43.6546 31.2282 43.034 31.9866 42.9704 33.3709C42.7264 38.9981 37.8099 43.2676 32.188 42.7266C27.9027 42.3129 24.3386 39.1625 23.4794 35.031C22.5725 30.6819 24.5348 26.3701 28.3853 24.2539H28.3906Z" fill="#2D4433"/>
</svg>
