<svg width="63" height="70" viewBox="0 0 63 70" fill="none" xmlns="http://www.w3.org/2000/svg">
<path d="M31.2642 58.2635C30.5548 58.395 30.1379 58.9576 30.1361 59.8235C30.1306 62.5982 30.1598 65.3729 30.1196 68.1458C30.1068 68.9861 30.3536 69.598 31.0923 69.9999H31.9133C32.396 69.6839 32.8604 69.3423 32.8622 68.6902C32.8695 65.6433 32.8823 62.5964 32.8549 59.5495C32.8476 58.7019 32.0559 58.1155 31.2642 58.2635Z" fill="#2D4433"/>
<path d="M62.552 33.9633C57.7963 27.5755 52.035 22.353 44.7744 18.9426C36.3948 15.0079 27.8982 14.7796 19.3668 18.4476C11.5997 21.7867 5.52024 27.2101 0.499424 33.9049C-0.173431 34.8036 -0.164289 35.1927 0.514051 36.1115C4.27509 41.2079 8.78944 45.5116 14.1778 48.8617C19.4637 52.1479 25.1811 54.0842 31.1344 54.1408C34.9869 54.1298 38.4115 53.5362 41.7063 52.316C50.4388 49.0846 57.1564 43.263 62.6434 35.8941C63.1517 35.211 63.117 34.7251 62.5502 33.9633H62.552ZM59.6192 35.4174C55.0171 41.1787 49.6178 45.95 42.7942 48.9421C34.8662 52.4201 26.9858 52.1936 19.2004 48.4836C12.8576 45.4604 7.76553 40.9047 3.42305 35.4521C3.17804 35.1434 3.10857 34.926 3.38831 34.5735C8.04893 28.7372 13.5323 23.9312 20.462 20.9391C23.9945 19.4139 27.6842 18.5827 32.215 18.5864C37.2468 18.6247 42.4176 20.4131 47.2281 23.3558C52.0478 26.3059 56.0849 30.1237 59.5808 34.5387C59.824 34.8456 59.899 35.063 59.6156 35.4174H59.6192Z" fill="#2D4433"/>
<path d="M31.5166 11.7475C32.3211 11.7383 32.8623 11.1264 32.8678 10.1893C32.877 8.75719 32.8696 7.32507 32.8696 5.89296C32.8696 4.46084 32.8751 3.02873 32.8696 1.59661C32.8642 0.615689 32.3156 -0.00903457 31.4874 9.88078e-05C30.681 0.00923219 30.138 0.619342 30.1362 1.55825C30.1307 4.44623 30.1289 7.33238 30.1362 10.2204C30.138 11.1447 30.7103 11.7584 31.5166 11.7493V11.7475Z" fill="#2D4433"/>
<path d="M10.2048 18.3857C10.3493 18.5282 10.5102 18.7382 10.6802 18.7565C11.1282 18.804 11.6584 18.9044 12.0204 18.7181C12.3806 18.5336 12.5781 18.0258 12.8505 17.655C12.633 17.2367 12.5123 16.917 12.3185 16.6503C12.1192 16.3782 11.8504 16.1553 11.609 15.9142C9.93605 14.2428 8.26306 12.5714 6.5864 10.9018C6.16953 10.4871 5.63014 10.2277 5.11088 10.5401C4.72691 10.7703 4.29723 11.2196 4.24238 11.6215C4.1857 12.0288 4.45813 12.5988 4.76896 12.9221C6.55166 14.7725 8.38739 16.5736 10.2085 18.3857H10.2048Z" fill="#2D4433"/>
<path d="M51.8795 18.9666C52.077 18.8406 52.5012 18.6615 52.8102 18.3638C54.1193 17.1016 55.3956 15.8028 56.6828 14.5168C57.277 13.9213 57.8987 13.3496 58.4527 12.7175C59.195 11.87 58.7781 10.6041 57.6939 10.4817C57.3008 10.4378 56.7577 10.615 56.4725 10.8872C54.5399 12.7486 52.6566 14.6611 50.7606 16.5609C50.649 16.6723 50.5485 16.802 50.4717 16.939C49.978 17.8304 50.6179 18.9355 51.8777 18.9666H51.8795Z" fill="#2D4433"/>
<path d="M11.4681 52.4604C11.0823 52.4056 10.5375 52.6814 10.2285 52.981C8.3635 54.7803 6.54423 56.6289 4.71216 58.4647C4.58417 58.5925 4.39768 58.7368 4.38305 58.8866C4.33734 59.336 4.22215 59.8621 4.40316 60.2256C4.58417 60.5891 5.08699 60.7919 5.50569 61.1079C5.96462 60.8193 6.37053 60.6494 6.66491 60.3644C8.02159 59.051 9.34718 57.7084 10.6819 56.3731C11.2451 55.8105 11.8759 55.2936 12.3312 54.6542C12.5798 54.3053 12.7096 53.6715 12.5634 53.2934C12.4153 52.9152 11.8814 52.5188 11.47 52.4604H11.4681Z" fill="#2D4433"/>
<path d="M52.673 52.8641C52.4152 52.6102 52.0239 52.4933 51.5358 52.2266C51.1445 52.5736 50.6764 52.8403 50.4332 53.2422C50.0858 53.8139 50.3382 54.382 50.7953 54.8405C52.6602 56.7056 54.5216 58.5761 56.3975 60.432C57.0521 61.0786 57.8292 61.106 58.4051 60.5562C59.0012 59.9881 58.9939 59.1752 58.3265 58.5012C56.4542 56.6088 54.5728 54.7273 52.6712 52.8659L52.673 52.8641Z" fill="#2D4433"/>
<path d="M31.0539 22.6894C30.03 22.6949 28.5289 22.9341 27.0972 23.515C26.3823 23.8055 26.0825 24.4905 26.2982 25.1901C26.5085 25.8696 27.1722 26.2404 27.9273 26.0833C28.1486 26.0377 28.3607 25.9445 28.5764 25.8751C34.4694 24.0101 40.5909 28.1274 41.0626 34.2723C41.4302 39.0674 38.1408 43.4021 33.387 44.3848C28.7794 45.3383 24.0566 42.6604 22.4769 38.196C21.9174 36.6178 21.8131 35.0067 22.0527 33.3499C22.1916 32.3854 21.7126 31.757 20.8989 31.6547C20.0981 31.5542 19.4911 32.0858 19.3411 33.0192C17.9991 41.3178 25.2524 48.5259 33.5479 47.1376C39.7846 46.0928 44.2788 40.3826 43.7979 34.1098C43.3061 27.6945 37.9799 22.7186 31.0576 22.6875L31.0539 22.6894Z" fill="#2D4433"/>
<path d="M36.9745 35.0358C36.9909 32.0145 34.5408 29.5394 31.524 29.5302C28.5309 29.5211 26.0607 31.9469 26.0296 34.9244C25.9985 37.9476 28.4358 40.441 31.4453 40.4647C34.4677 40.4903 36.958 38.0444 36.9745 35.0358ZM28.7667 35.0139C28.7576 33.5106 29.9808 32.2721 31.4837 32.2629C32.9885 32.2538 34.2282 33.4759 34.2373 34.9774C34.2465 36.4789 33.0214 37.7192 31.5203 37.7284C30.0174 37.7375 28.7759 36.5136 28.7685 35.0121L28.7667 35.0139Z" fill="#2D4433"/>
<path d="M23.2797 29.5231C24.0074 29.5286 24.6291 28.9331 24.6547 28.2061C24.6802 27.4553 24.0568 26.8068 23.3016 26.7995C22.5739 26.7922 21.9523 27.3896 21.9285 28.1166C21.9029 28.871 22.5264 29.5176 23.2815 29.5231H23.2797Z" fill="#2D4433"/>
</svg>
