<svg width="177" height="63" viewBox="0 0 177 63" fill="none" xmlns="http://www.w3.org/2000/svg">
<g clip-path="url(#clip0_6868_388)">
<path d="M93.4387 28.8465L84.255 5.83264H80.1206L70.8643 28.8434H75.2683L77.3279 23.5824H86.8175L88.862 28.8434H93.4356L93.4387 28.8465ZM78.7848 19.8702L80.3568 15.8599C80.5143 15.4205 80.69 14.9288 80.8839 14.3818C81.0747 13.8348 81.2746 13.2632 81.4775 12.6732C81.6805 12.0801 81.8743 11.5116 82.053 10.9646C82.0682 10.9154 82.0833 10.8724 82.0985 10.8232C82.2772 11.3948 82.474 12.0033 82.6951 12.6578C82.9223 13.3277 83.1313 13.9454 83.3221 14.517C83.513 15.0886 83.6674 15.5034 83.7795 15.7677L85.3757 19.8763H78.7848V19.8702Z" fill="#2D4433"/>
<path d="M92.0879 5.83264V9.77533V9.7784H98.8666L98.8635 28.8465H98.8666H103.271L103.274 9.7784H110.255V5.83571L92.0879 5.83264Z" fill="#2D4433"/>
<path d="M128.898 28.8495V24.9714L117.576 24.9683V18.9852L127.032 18.9882L127.035 18.9852V15.1746L127.032 15.1715H117.576L117.579 9.71385L128.765 9.71692V9.71385V5.83569H113.242H113.239V28.8465V28.8495H128.898Z" fill="#2D4433"/>
<path d="M146.475 28.7697C147.592 28.4962 148.604 28.1182 149.51 27.6357C150.412 27.1533 151.136 26.6186 151.678 26.0255L149.51 22.639C149.013 23.1215 148.465 23.5425 147.868 23.9051C147.268 24.2677 146.62 24.5474 145.918 24.744C145.218 24.9407 144.494 25.039 143.749 25.039C142.595 25.039 141.538 24.8577 140.578 24.4951C139.617 24.1325 138.791 23.6132 138.103 22.934C137.412 22.2549 136.882 21.4436 136.51 20.5002C136.137 19.5568 135.949 18.5058 135.952 17.3442C135.955 16.1826 136.143 15.1685 136.528 14.2374C136.913 13.3063 137.437 12.5011 138.106 11.822C138.772 11.1428 139.563 10.6174 140.478 10.2455C141.392 9.87369 142.371 9.68623 143.41 9.68623C144.109 9.68623 144.794 9.79072 145.46 9.99968C146.127 10.2086 146.772 10.516 147.393 10.9216C148.014 11.3272 148.619 11.8251 149.207 12.4181L152.021 9.4281C151.412 8.65985 150.655 7.98685 149.749 7.40605C148.843 6.82525 147.85 6.37044 146.766 6.04163C145.681 5.71282 144.564 5.54688 143.41 5.54688C141.713 5.54688 140.144 5.84189 138.697 6.43498C137.249 7.02807 135.986 7.86086 134.901 8.93334C133.817 10.0058 132.969 11.2565 132.36 12.6824C131.748 14.1083 131.445 15.654 131.442 17.3165C131.442 19.0497 131.73 20.6446 132.306 22.1012C132.881 23.5578 133.69 24.8209 134.729 25.8811C135.768 26.9443 137 27.7617 138.424 28.3303C139.848 28.8988 141.42 29.1846 143.137 29.1846C144.243 29.1846 145.357 29.0493 146.475 28.7728V28.7697Z" fill="#2D4433"/>
<path d="M176.122 12.5964C175.534 11.1613 174.71 9.90439 173.647 8.8319C172.584 7.75942 171.33 6.92356 169.885 6.33354C168.437 5.74044 166.856 5.44543 165.139 5.44543C163.443 5.44543 161.874 5.74044 160.426 6.33354C158.978 6.92356 157.718 7.75327 156.646 8.81654C155.57 9.8798 154.741 11.1336 154.153 12.581C153.565 14.0284 153.271 15.6048 153.271 17.3134C153.271 19.022 153.565 20.6016 154.153 22.049C154.741 23.4964 155.57 24.7502 156.646 25.8134C157.718 26.8767 158.978 27.7033 160.426 28.2964C161.874 28.8895 163.443 29.1845 165.139 29.1845C166.835 29.1845 168.437 28.8895 169.885 28.2964C171.33 27.7064 172.584 26.8736 173.647 25.798C174.71 24.7256 175.534 23.4626 176.122 22.0182C176.709 20.5708 177.003 19.0036 177.003 17.3165C177.003 15.6079 176.709 14.0345 176.122 12.5994V12.5964ZM171.969 20.4049C171.596 21.3483 171.081 22.175 170.427 22.8879C169.773 23.6008 168.998 24.1478 168.104 24.532C167.21 24.9161 166.223 25.1066 165.139 25.1066C164.076 25.1066 163.094 24.9161 162.189 24.532C161.283 24.1478 160.505 23.607 159.85 22.9033C159.196 22.2026 158.687 21.3729 158.324 20.4203C157.963 19.4676 157.782 18.432 157.782 17.3134C157.782 16.1734 157.963 15.1316 158.324 14.1913C158.684 13.2478 159.193 12.4273 159.85 11.7267C160.505 11.026 161.286 10.4821 162.189 10.098C163.091 9.71386 164.076 9.52333 165.139 9.52333C166.202 9.52333 167.21 9.71693 168.104 10.098C168.998 10.4821 169.77 11.0291 170.427 11.7421C171.081 12.455 171.596 13.2816 171.969 14.2251C172.341 15.1685 172.529 16.1979 172.526 17.3165C172.526 18.4351 172.338 19.4646 171.966 20.408L171.969 20.4049Z" fill="#2D4433"/>
<path d="M85.2999 38.631C83.9338 37.9641 82.4163 37.6292 80.7535 37.6292C78.8907 37.6292 77.2369 38.0717 75.7952 38.9536C74.3534 39.8356 73.2145 41.0525 72.3846 42.6044C71.5517 44.1562 71.1367 45.914 71.1367 47.8807C71.1367 49.8475 71.5517 51.6053 72.3846 53.1571C73.2176 54.709 74.3534 55.9321 75.7952 56.8263C77.2369 57.7206 78.8756 58.1692 80.7141 58.1692C82.2286 58.1692 83.6946 57.8281 85.1121 57.149C86.5266 56.4698 87.6594 55.5602 88.5045 54.4263L86.8658 52.3858C86.3176 53.0649 85.7239 53.6334 85.0757 54.0852C84.4275 54.54 83.746 54.8842 83.0252 55.1239C82.3043 55.3636 81.5713 55.4834 80.8262 55.4834C79.5328 55.4834 78.3667 55.1546 77.3217 54.5C76.2768 53.8455 75.4499 52.942 74.8441 51.7958C74.2353 50.6495 73.9324 49.3435 73.9324 47.8807C73.9324 46.418 74.2383 45.1181 74.8471 43.9872C75.4559 42.8533 76.2828 41.9529 77.3278 41.283C78.3728 40.6161 79.551 40.2812 80.8686 40.2812C81.6137 40.2812 82.3649 40.4133 83.1251 40.6776C83.8823 40.9419 84.5911 41.3137 85.2484 41.7931C85.9057 42.2725 86.4721 42.8287 86.9446 43.4556L88.5832 41.4151C87.7624 40.2289 86.6689 39.3039 85.3029 38.6371L85.2999 38.631Z" fill="#2D4433"/>
<path d="M106.248 38.044L106.172 41.5258C106.118 41.4305 106.066 41.3322 106.006 41.24C105.545 40.5209 104.973 39.8909 104.291 39.347C103.607 38.8061 102.831 38.3821 101.962 38.0809C101.093 37.7797 100.148 37.6261 99.1299 37.6261C97.4156 37.6261 95.8678 38.0686 94.4896 38.9506C93.1115 39.8325 92.012 41.0433 91.1912 42.5798C90.3703 44.1194 89.9614 45.8833 89.9614 47.8746C89.9614 49.8414 90.3582 51.5991 91.1548 53.151C91.9484 54.7029 93.0297 55.9259 94.3957 56.8202C95.7618 57.7144 97.2914 58.1631 98.9815 58.1631C99.9507 58.1631 100.875 58.0125 101.759 57.7083C102.64 57.4041 103.437 56.9892 104.146 56.4606C104.855 55.9321 105.457 55.3206 105.954 54.626C106.048 54.4939 106.133 54.3587 106.215 54.2266V57.7851H109.047V38.044H106.251H106.248ZM105.482 51.7927C104.897 52.939 104.094 53.8363 103.077 54.4785C102.056 55.1208 100.902 55.4435 99.6085 55.4435C98.2909 55.4435 97.1218 55.1147 96.104 54.4601C95.0863 53.8056 94.2897 52.9021 93.7173 51.7558C93.1448 50.6096 92.8601 49.3159 92.8601 47.8808C92.8601 46.418 93.1509 45.1181 93.7354 43.9873C94.32 42.8533 95.1136 41.9591 96.1222 41.3014C97.1278 40.6469 98.2909 40.3181 99.6085 40.3181C100.899 40.3181 102.056 40.6469 103.074 41.3014C104.091 41.956 104.894 42.8533 105.478 43.9873C106.063 45.1212 106.354 46.4211 106.354 47.8838C106.354 49.3466 106.06 50.6496 105.478 51.7989L105.482 51.7927Z" fill="#2D4433"/>
<path d="M128.222 38.9567C126.844 38.0748 125.284 37.6323 123.546 37.6323C122.652 37.6323 121.786 37.7705 120.953 38.0471C120.12 38.3237 119.357 38.7078 118.66 39.1995C117.964 39.6912 117.385 40.2597 116.928 40.902C116.779 41.1078 116.655 41.3168 116.537 41.5288V31.3971H113.741V57.7513H116.498L116.57 54.497C116.637 54.5984 116.7 54.7029 116.776 54.8043C117.261 55.4619 117.857 56.0396 118.563 56.5436C119.327 57.0875 120.181 57.5055 121.129 57.8005C121.919 58.0463 122.749 58.1693 123.576 58.1723C125.33 58.1785 126.905 57.739 128.292 56.8479C129.67 55.9659 130.758 54.749 131.554 53.1971C132.348 51.6452 132.748 49.8752 132.748 47.8839C132.748 45.8925 132.339 44.1286 131.518 42.589C130.697 41.0525 129.598 39.8418 128.219 38.9567H128.222ZM129.08 51.7589C128.495 52.9052 127.695 53.8148 126.675 54.4816C125.657 55.1485 124.488 55.4834 123.17 55.4834C121.853 55.4834 120.686 55.1546 119.666 54.5001C118.648 53.8455 117.845 52.942 117.261 51.7958C116.676 50.6496 116.385 49.3435 116.385 47.8808C116.385 46.418 116.676 45.1181 117.261 43.9873C117.845 42.8533 118.645 41.9591 119.666 41.3014C120.686 40.6469 121.853 40.3181 123.17 40.3181C124.488 40.3181 125.654 40.6469 126.675 41.3014C127.692 41.956 128.495 42.8533 129.08 43.9873C129.664 45.1212 129.955 46.4211 129.955 47.8839C129.955 49.322 129.664 50.6127 129.08 51.7589Z" fill="#2D4433"/>
<path d="M138.939 31.4001H136.143V57.7912H138.939V31.4001Z" fill="#2D4433"/>
<path d="M158.006 40.2996C157.225 39.4545 156.292 38.7938 155.21 38.3144C154.129 37.835 152.93 37.5953 151.615 37.5953C150.222 37.5953 148.931 37.8535 147.738 38.3697C146.545 38.886 145.521 39.6112 144.664 40.5454C143.807 41.4796 143.14 42.5675 142.671 43.8151C142.198 45.0628 141.962 46.4579 141.962 47.9944C141.962 49.9858 142.383 51.7527 143.228 53.2893C144.073 54.8288 145.245 56.0242 146.751 56.8816C148.253 57.739 149.973 58.1692 151.912 58.1692C152.905 58.1692 153.875 58.0371 154.82 57.7728C155.765 57.5085 156.634 57.1551 157.427 56.7157C158.221 56.2762 158.906 55.7661 159.478 55.1853L158.024 53.1448C156.931 54.079 155.931 54.6998 155.026 55.0163C154.117 55.3328 153.205 55.4895 152.287 55.4895C150.721 55.4895 149.386 55.173 148.28 54.5431C147.175 53.9131 146.324 53.025 145.727 51.8757C145.215 50.8923 144.936 49.743 144.864 48.4523H160.263L160.299 47.1309C160.347 45.745 160.175 44.4697 159.778 43.3112C159.381 42.1526 158.79 41.1477 158.006 40.3027V40.2996ZM147.999 41.1693C149.016 40.6038 150.222 40.318 151.615 40.318C152.808 40.318 153.832 40.5823 154.689 41.1139C155.547 41.6425 156.21 42.3309 156.682 43.1759C157.155 44.021 157.415 44.8968 157.464 45.8034V46.0677H144.957C145.088 45.1765 145.309 44.3744 145.648 43.6861C146.196 42.5767 146.978 41.7378 147.995 41.1723L147.999 41.1693Z" fill="#2D4433"/>
<path d="M175.134 48.4923C174.637 48.0652 174.01 47.6934 173.253 47.3768C172.496 47.0634 171.569 46.753 170.476 46.4488C169.531 46.1968 168.743 45.9509 168.11 45.7113C167.477 45.4716 166.986 45.2134 166.638 44.9369C166.365 44.7094 166.153 44.4452 166.005 44.144C165.857 43.8398 165.781 43.5018 165.781 43.1238C165.781 42.672 165.875 42.2541 166.06 41.8761C166.244 41.4981 166.52 41.1755 166.88 40.9112C167.241 40.6469 167.677 40.438 168.186 40.2874C168.664 40.146 169.179 40.0692 169.734 40.06C170.427 40.0477 171.124 40.1614 171.778 40.3919C172.42 40.6193 173.029 40.9388 173.608 41.3445C174.18 41.7471 174.701 42.2019 175.174 42.7058L176.888 40.8159C176.343 40.1614 175.682 39.5929 174.913 39.1135C174.144 38.6341 173.311 38.2684 172.417 38.0164C171.524 37.7644 170.615 37.6384 169.697 37.6384C168.728 37.6384 167.828 37.7706 166.995 38.0348C166.163 38.2991 165.442 38.6894 164.833 39.2087C164.224 39.725 163.752 40.3242 163.415 41.0065C163.079 41.6887 162.913 42.4323 162.913 43.2375C162.913 43.8674 163.006 44.4482 163.191 44.9768C163.376 45.5054 163.658 45.997 164.03 46.4519C164.551 47.0081 165.272 47.4936 166.193 47.9085C167.111 48.3233 168.268 48.7351 169.661 49.1377C170.506 49.3651 171.227 49.5986 171.824 49.8383C172.42 50.078 172.881 50.3116 173.202 50.539C173.923 51.0921 174.283 51.7866 174.283 52.6194C174.283 53.0742 174.183 53.4891 173.986 53.867C173.786 54.245 173.502 54.5738 173.129 54.8504C172.756 55.127 172.32 55.336 171.824 55.4742C171.327 55.6125 170.766 55.6832 170.146 55.6832C168.928 55.6832 167.828 55.4558 166.847 55.001C165.866 54.5462 165.015 53.8793 164.294 52.9974L162.319 54.7367C163.088 55.7692 164.133 56.602 165.451 57.232C166.768 57.862 168.259 58.1785 169.924 58.1785C171.29 58.1785 172.508 57.9327 173.577 57.441C174.646 56.9493 175.485 56.2763 176.094 55.4189C176.703 54.5616 177.009 53.5782 177.009 52.4688C177.009 51.636 176.867 50.8924 176.582 50.2378C176.297 49.5833 175.819 49.0025 175.146 48.4985L175.134 48.4923Z" fill="#2D4433"/>
<path d="M31.0463 63C13.9269 63 0 48.8672 0 31.4985C0 14.1298 13.9269 0 31.0463 0C48.1656 0 62.0925 14.1298 62.0925 31.4985C62.0925 48.8672 48.1656 62.9969 31.0463 62.9969V63ZM31.0463 2.91937C15.514 2.9163 2.87443 15.74 2.87443 31.4985C2.87443 47.2569 15.511 60.0806 31.0463 60.0806C46.5815 60.0806 59.2181 47.26 59.2181 31.4985C59.2181 15.7369 46.5815 2.9163 31.0463 2.9163V2.91937ZM31.0463 57.4655C16.9346 57.4655 5.45505 45.8187 5.45505 31.5015C5.45505 17.1843 16.9376 5.53758 31.0463 5.53758C45.1549 5.53758 56.6344 17.1843 56.6344 31.4985C56.6344 45.8126 45.1549 57.4624 31.0463 57.4624V57.4655ZM31.0463 8.45695C18.5217 8.45695 8.33251 18.7946 8.33251 31.5015C8.33251 44.2085 18.5217 54.5461 31.0463 54.5461C43.5708 54.5461 53.76 44.2085 53.76 31.5015C53.76 18.7946 43.5708 8.45388 31.0463 8.45388V8.45695Z" fill="#2D4433"/>
<path d="M27.7811 13.8809V27.8109H14.0934C15.4443 20.7952 20.8691 15.273 27.7811 13.8809ZM30.6555 10.6327C19.8514 10.9246 11.1584 19.7596 10.8979 30.7272H30.6555V10.6327Z" fill="#2D4433"/>
<path d="M22.3716 34.7958C25.355 34.7958 27.7812 37.2573 27.7812 40.2842C27.7812 43.3112 25.355 45.7726 22.3716 45.7726C19.3881 45.7726 16.9619 43.3112 16.9619 40.2842C16.9619 37.2573 19.3881 34.7958 22.3716 34.7958ZM22.3716 31.8795C17.7949 31.8795 14.0845 35.644 14.0845 40.2873C14.0845 44.9306 17.7949 48.6951 22.3716 48.6951C26.9482 48.6951 30.6586 44.9306 30.6586 40.2873C30.6586 35.644 26.9482 31.8795 22.3716 31.8795Z" fill="#2D4433"/>
<path d="M48.2836 34.7958C46.8812 41.7531 41.4565 47.217 34.5839 48.5875V34.7958H48.2836ZM51.5034 31.8795H31.7095V51.8296C42.4833 51.5622 51.1702 42.7918 51.5034 31.8795Z" fill="#2D4433"/>
<path d="M34.7387 13.9085C41.5901 15.3374 46.9694 20.8443 48.3142 27.8108H34.7387V13.9085ZM31.8643 10.6388V30.7271H51.5097C51.2523 19.7995 42.6169 10.986 31.8643 10.6388Z" fill="#2D4433"/>
</g>
<defs>
<clipPath id="clip0_6868_388">
<rect width="177" height="63" fill="white"/>
</clipPath>
</defs>
</svg>
